<svg width="41" height="40" viewBox="0 0 41 40" fill="none" xmlns="http://www.w3.org/2000/svg">
<rect x="0.450195" y="-0.0100098" width="40" height="40" rx="8" fill="#E7000B"/>
<path d="M27.4502 18.99H13.4502M27.4502 18.99C27.9806 18.99 28.4893 19.2007 28.8644 19.5758C29.2395 19.9508 29.4502 20.4596 29.4502 20.99V26.99C29.4502 27.5204 29.2395 28.0291 28.8644 28.4042C28.4893 28.7793 27.9806 28.99 27.4502 28.99H13.4502C12.9198 28.99 12.4111 28.7793 12.036 28.4042C11.6609 28.0291 11.4502 27.5204 11.4502 26.99V20.99C11.4502 20.4596 11.6609 19.9508 12.036 19.5758C12.4111 19.2007 12.9198 18.99 13.4502 18.99M27.4502 18.99V16.99C27.4502 16.4596 27.2395 15.9508 26.8644 15.5758C26.4893 15.2007 25.9806 14.99 25.4502 14.99M13.4502 18.99V16.99C13.4502 16.4596 13.6609 15.9508 14.036 15.5758C14.4111 15.2007 14.9198 14.99 15.4502 14.99M25.4502 14.99V12.99C25.4502 12.4596 25.2395 11.9508 24.8644 11.5758C24.4893 11.2007 23.9806 10.99 23.4502 10.99H17.4502C16.9198 10.99 16.4111 11.2007 16.036 11.5758C15.6609 11.9508 15.4502 12.4596 15.4502 12.99V14.99M25.4502 14.99H15.4502" stroke="white" stroke-width="2" stroke-linecap="round" stroke-linejoin="round"/>
</svg>
