<svg width="65" height="65" viewBox="0 0 65 65" fill="none" xmlns="http://www.w3.org/2000/svg">
<rect x="0.149902" y="0.799927" width="64" height="64" rx="32" fill="#FFE2E2"/>
<path d="M21.9073 25.2239C21.3501 25.7811 20.9082 26.4425 20.6066 27.1705C20.3051 27.8984 20.1499 28.6787 20.1499 29.4666C20.1499 30.2545 20.3051 31.0348 20.6066 31.7627C20.9082 32.4907 21.3501 33.1521 21.9073 33.7093L32.15 43.9519L42.3926 33.7093C43.5178 32.584 44.15 31.0579 44.15 29.4666C44.15 27.8753 43.5178 26.3492 42.3926 25.2239C41.2674 24.0987 39.7413 23.4666 38.15 23.4666C36.5586 23.4666 35.0325 24.0987 33.9073 25.2239L32.15 26.9813L30.3926 25.2239C29.8355 24.6668 29.174 24.2248 28.4461 23.9233C27.7181 23.6217 26.9379 23.4666 26.15 23.4666C25.362 23.4666 24.5818 23.6217 23.8538 23.9233C23.1259 24.2248 22.4644 24.6668 21.9073 25.2239Z" stroke="#E7000B" stroke-width="2.66667" stroke-linecap="round" stroke-linejoin="round"/>
</svg>
