<svg width="65" height="65" viewBox="0 0 65 65" fill="none" xmlns="http://www.w3.org/2000/svg">
<rect x="0.150391" y="0.799927" width="64" height="64" rx="32" fill="#FFE2E2"/>
<path d="M28.1507 23.4666H25.484C24.7768 23.4666 24.0985 23.7475 23.5984 24.2476C23.0983 24.7477 22.8174 25.426 22.8174 26.1333V42.1333C22.8174 42.8405 23.0983 43.5188 23.5984 44.0189C24.0985 44.519 24.7768 44.7999 25.484 44.7999H38.8174C39.5246 44.7999 40.2029 44.519 40.703 44.0189C41.2031 43.5188 41.4841 42.8405 41.4841 42.1333V26.1333C41.4841 25.426 41.2031 24.7477 40.703 24.2476C40.2029 23.7475 39.5246 23.4666 38.8174 23.4666H36.1507M28.1507 23.4666C28.1507 24.1738 28.4317 24.8521 28.9318 25.3522C29.4319 25.8523 30.1101 26.1333 30.8174 26.1333H33.484C34.1913 26.1333 34.8696 25.8523 35.3697 25.3522C35.8698 24.8521 36.1507 24.1738 36.1507 23.4666M28.1507 23.4666C28.1507 22.7593 28.4317 22.0811 28.9318 21.581C29.4319 21.0809 30.1101 20.7999 30.8174 20.7999H33.484C34.1913 20.7999 34.8696 21.0809 35.3697 21.581C35.8698 22.0811 36.1507 22.7593 36.1507 23.4666" stroke="#E7000B" stroke-width="2.66667" stroke-linecap="round" stroke-linejoin="round"/>
</svg>
