<svg width="25" height="25" viewBox="0 0 25 25" fill="none" xmlns="http://www.w3.org/2000/svg">
<path d="M12.5 0C19.3749 1.61551e-05 24.9999 5.63497 25 12.5752C25.0067 15.569 23.9471 18.4667 22.0127 20.7451C20.0781 23.0235 17.3957 24.5329 14.4502 25V16.2148H17.3623L17.9248 12.5752H14.4502V10.2158C14.4502 9.2244 14.9374 8.25788 16.4873 8.25781H18.0625V5.1582C18.0625 5.1582 16.6378 4.91997 15.2754 4.91992C12.4129 4.91992 10.5498 6.65165 10.5498 9.80176V12.5752H7.375V16.2148H10.5498V25C4.5749 24.0587 0 18.8503 0 12.5752C5.77836e-05 5.63496 5.62505 0 12.5 0Z" fill="white"/>
</svg>
