<svg width="25" height="25" viewBox="0 0 25 25" fill="none" xmlns="http://www.w3.org/2000/svg">
<path d="M22.2227 0C22.9592 0.000112494 23.6657 0.292645 24.1865 0.813477C24.7074 1.33431 24.9999 2.04079 25 2.77734V22.2227C24.9999 22.9592 24.7074 23.6657 24.1865 24.1865C23.6657 24.7074 22.9592 24.9999 22.2227 25H2.77734C2.04079 24.9999 1.33431 24.7074 0.813477 24.1865C0.292647 23.6657 0.000115144 22.9592 0 22.2227V2.77734C0.000114892 2.04079 0.292648 1.33431 0.813477 0.813477C1.33431 0.292647 2.04079 0.000117543 2.77734 0H22.2227ZM3.47266 21.5273H7.31934V9.90234H3.47266V21.5273ZM17 9.63867C15.8194 9.63868 14.444 10.361 13.7773 11.4443V9.90234H9.90234V21.5273H13.7773V14.6807C13.7773 13.6113 14.6387 12.7365 15.708 12.7363C16.2237 12.7363 16.7184 12.9411 17.083 13.3057C17.4477 13.6703 17.6523 14.165 17.6523 14.6807V21.5273H21.5273V14.167C21.5273 12.9662 21.0503 11.814 20.2012 10.9648C19.3521 10.1159 18.2007 9.63867 17 9.63867ZM5.38867 3.04199C4.76623 3.04205 4.16963 3.28936 3.72949 3.72949C3.28936 4.16963 3.04205 4.76623 3.04199 5.38867C3.04199 6.68026 4.09711 7.72253 5.38867 7.72266C6.00751 7.72266 6.60148 7.47664 7.03906 7.03906C7.47665 6.60148 7.72266 6.00751 7.72266 5.38867C7.72254 4.0971 6.68027 3.04199 5.38867 3.04199Z" fill="white"/>
</svg>
