<svg width="18" height="18" viewBox="0 0 18 18" fill="none" xmlns="http://www.w3.org/2000/svg">
<path d="M9 0C11.314 0 13.456 0.386527 15.058 1.05063C15.857 1.38221 16.567 1.80095 17.09 2.31442C17.575 2.78811 17.935 3.38305 17.992 4.07274L18 4.26316V13.7368C18 14.508 17.619 15.1674 17.09 15.6856C16.567 16.1991 15.857 16.6178 15.058 16.9494C13.456 17.6125 11.314 18 9 18C6.686 18 4.544 17.6135 2.942 16.9494C2.143 16.6178 1.433 16.1991 0.91 15.6856C0.425 15.2119 0.0649999 14.6169 0.0079999 13.9273L0 13.7368V4.26316C0 3.492 0.381 2.83263 0.91 2.31442C1.433 1.80095 2.143 1.38221 2.942 1.05063C4.544 0.387474 6.686 0 9 0ZM16 11.754C15.697 11.9264 15.3823 12.0796 15.058 12.2125C13.456 12.8757 11.314 13.2632 9 13.2632C6.686 13.2632 4.544 12.8766 2.942 12.2125C2.61765 12.0796 2.30296 11.9264 2 11.754V13.7368C2 13.8808 2.066 14.0931 2.348 14.3687C2.634 14.6492 3.096 14.9447 3.744 15.2138C5.038 15.75 6.895 16.1053 9 16.1053C11.105 16.1053 12.962 15.75 14.256 15.2138C14.904 14.9447 15.366 14.6492 15.652 14.3687C15.934 14.094 16 13.8808 16 13.7368V11.754ZM16 7.01716C15.697 7.18954 15.3823 7.34272 15.058 7.47568C13.456 8.13884 11.314 8.52632 9 8.52632C6.686 8.52632 4.544 8.13979 2.942 7.47568C2.61765 7.34272 2.30296 7.18954 2 7.01716V9C2 9.144 2.066 9.35621 2.348 9.63189C2.634 9.91232 3.096 10.2079 3.744 10.4769C5.038 11.0132 6.895 11.3684 9 11.3684C11.105 11.3684 12.962 11.0132 14.256 10.4769C14.904 10.2079 15.366 9.91232 15.652 9.63189C15.934 9.35716 16 9.144 16 9V7.01716ZM9 1.89474C6.895 1.89474 5.038 2.25 3.744 2.78621C3.096 3.05526 2.634 3.35084 2.348 3.63126C2.066 3.906 2 4.11916 2 4.26316C2 4.40716 2.066 4.61937 2.348 4.89505C2.634 5.17547 3.096 5.47105 3.744 5.74011C5.038 6.27632 6.895 6.63158 9 6.63158C11.105 6.63158 12.962 6.27632 14.256 5.74011C14.904 5.47105 15.366 5.17547 15.652 4.89505C15.934 4.62032 16 4.40716 16 4.26316C16 4.11916 15.934 3.90695 15.652 3.63126C15.366 3.35084 14.904 3.05526 14.256 2.78621C12.962 2.25 11.105 1.89474 9 1.89474Z" fill="black"/>
</svg>
