<svg width="65" height="65" viewBox="0 0 65 65" fill="none" xmlns="http://www.w3.org/2000/svg">
<rect x="0.150391" y="0.799927" width="64" height="64" rx="32" fill="#FFE2E2"/>
<path d="M30.8169 20.8733C28.5708 21.1243 26.4413 22.0044 24.6734 23.4123C22.9055 24.8202 21.5711 26.6986 20.8237 28.8315C20.0763 30.9643 19.9463 33.2648 20.4487 35.4683C20.9511 37.6717 22.0655 39.6885 23.6635 41.2866C25.2616 42.8847 27.2784 43.999 29.4819 44.5014C31.6853 45.0038 33.9859 44.8738 36.1187 44.1264C38.2515 43.379 40.13 42.0446 41.5379 40.2767C42.9458 38.5088 43.8259 36.3793 44.0769 34.1333H30.8169V20.8733Z" stroke="#E7000B" stroke-width="2.66667" stroke-linecap="round" stroke-linejoin="round"/>
<path d="M43.4677 28.7999H36.1504V21.4825C37.8376 22.0811 39.3699 23.0486 40.6358 24.3145C41.9017 25.5803 42.8692 27.1127 43.4677 28.7999Z" stroke="#E7000B" stroke-width="2.66667" stroke-linecap="round" stroke-linejoin="round"/>
</svg>
