<svg width="25" height="25" viewBox="0 0 25 25" fill="none" xmlns="http://www.w3.org/2000/svg">
<path d="M17.75 0C21.75 0 25 3.25 25 7.25V17.75C25 19.6728 24.2366 21.5173 22.877 22.877C21.5173 24.2366 19.6728 25 17.75 25H7.25C3.25 25 0 21.75 0 17.75V7.25C6.3141e-08 5.32718 0.763408 3.48269 2.12305 2.12305C3.48269 0.763408 5.32718 6.31419e-08 7.25 0H17.75ZM7 2.5C5.80653 2.5 4.66227 2.97445 3.81836 3.81836C2.97445 4.66227 2.5 5.80653 2.5 7V18C2.5 20.4875 4.5125 22.5 7 22.5H18C19.1935 22.5 20.3377 22.0256 21.1816 21.1816C22.0256 20.3377 22.5 19.1935 22.5 18V7C22.5 4.5125 20.4875 2.5 18 2.5H7ZM12.5 6.25C14.1576 6.25 15.7468 6.90895 16.9189 8.08105C18.091 9.25316 18.75 10.8424 18.75 12.5C18.75 14.1576 18.091 15.7468 16.9189 16.9189C15.7468 18.091 14.1576 18.75 12.5 18.75C10.8424 18.75 9.25316 18.091 8.08105 16.9189C6.90895 15.7468 6.25 14.1576 6.25 12.5C6.25 10.8424 6.90895 9.25316 8.08105 8.08105C9.25316 6.90895 10.8424 6.25 12.5 6.25ZM12.5 8.75C11.5054 8.75 10.5519 9.14537 9.84863 9.84863C9.14537 10.5519 8.75 11.5054 8.75 12.5C8.75 13.4946 9.14537 14.4481 9.84863 15.1514C10.5519 15.8546 11.5054 16.25 12.5 16.25C13.4946 16.25 14.4481 15.8546 15.1514 15.1514C15.8546 14.4481 16.25 13.4946 16.25 12.5C16.25 11.5054 15.8546 10.5519 15.1514 9.84863C14.4481 9.14537 13.4946 8.75 12.5 8.75ZM19.0625 4.375C19.4769 4.375 19.874 4.53998 20.167 4.83301C20.46 5.12603 20.625 5.5231 20.625 5.9375C20.625 6.3519 20.46 6.74897 20.167 7.04199C19.874 7.33502 19.4769 7.5 19.0625 7.5C18.6481 7.5 18.251 7.33502 17.958 7.04199C17.665 6.74897 17.5 6.3519 17.5 5.9375C17.5 5.5231 17.665 5.12603 17.958 4.83301C18.251 4.53998 18.6481 4.375 19.0625 4.375Z" fill="white"/>
</svg>
