<svg width="21" height="21" viewBox="0 0 21 21" fill="none" xmlns="http://www.w3.org/2000/svg">
<path d="M16.283 9.95671H4.61637M16.283 9.95671C16.7251 9.95671 17.149 10.1323 17.4616 10.4449C17.7741 10.7574 17.9497 11.1813 17.9497 11.6234V16.6234C17.9497 17.0654 17.7741 17.4893 17.4616 17.8019C17.149 18.1144 16.7251 18.29 16.283 18.29H4.61637C4.17435 18.29 3.75042 18.1144 3.43786 17.8019C3.1253 17.4893 2.94971 17.0654 2.94971 16.6234V11.6234C2.94971 11.1813 3.1253 10.7574 3.43786 10.4449C3.75042 10.1323 4.17435 9.95671 4.61637 9.95671M16.283 9.95671V8.29004C16.283 7.84801 16.1074 7.42409 15.7949 7.11153C15.4823 6.79897 15.0584 6.62337 14.6164 6.62337M4.61637 9.95671V8.29004C4.61637 7.84801 4.79197 7.42409 5.10453 7.11153C5.41709 6.79897 5.84101 6.62337 6.28304 6.62337M14.6164 6.62337V4.95671C14.6164 4.51468 14.4408 4.09075 14.1282 3.77819C13.8157 3.46563 13.3917 3.29004 12.9497 3.29004H7.94971C7.50768 3.29004 7.08376 3.46563 6.7712 3.77819C6.45863 4.09075 6.28304 4.51468 6.28304 4.95671V6.62337M14.6164 6.62337H6.28304" stroke="#6A7282" stroke-width="1.66667" stroke-linecap="round" stroke-linejoin="round"/>
</svg>
