<svg width="21" height="20" viewBox="0 0 21 20" fill="none" xmlns="http://www.w3.org/2000/svg">
<path d="M15.164 13.8708L11.6282 17.4067C11.4736 17.5614 11.29 17.6842 11.0878 17.768C10.8857 17.8518 10.6691 17.8949 10.4503 17.8949C10.2315 17.8949 10.0149 17.8518 9.81274 17.768C9.61062 17.6842 9.427 17.5614 9.27237 17.4067L5.73571 13.8708C4.80339 12.9385 4.16849 11.7506 3.91128 10.4574C3.65407 9.16418 3.78611 7.82375 4.29071 6.6056C4.7953 5.38744 5.64979 4.34627 6.74611 3.61375C7.84243 2.88122 9.13135 2.49023 10.4499 2.49023C11.7684 2.49023 13.0573 2.88122 14.1536 3.61375C15.25 4.34627 16.1044 5.38744 16.609 6.6056C17.1136 7.82375 17.2457 9.16418 16.9885 10.4574C16.7313 11.7506 16.0964 12.9385 15.164 13.8708Z" stroke="#828282" stroke-width="1.66667" stroke-linecap="round" stroke-linejoin="round"/>
<path d="M12.9497 9.15674C12.9497 9.81978 12.6863 10.4557 12.2175 10.9245C11.7486 11.3933 11.1127 11.6567 10.4497 11.6567C9.78667 11.6567 9.15078 11.3933 8.68194 10.9245C8.2131 10.4557 7.94971 9.81978 7.94971 9.15674C7.94971 8.4937 8.2131 7.85781 8.68194 7.38897C9.15078 6.92013 9.78667 6.65674 10.4497 6.65674C11.1127 6.65674 11.7486 6.92013 12.2175 7.38897C12.6863 7.85781 12.9497 8.4937 12.9497 9.15674Z" stroke="#828282" stroke-width="1.66667" stroke-linecap="round" stroke-linejoin="round"/>
</svg>
