<svg width="30" height="25" viewBox="0 0 30 25" fill="none" xmlns="http://www.w3.org/2000/svg">
<path d="M15 0C21.285 0 25.2001 0.286133 26.7451 0.786133C28.095 1.2326 28.9649 2.26797 29.3398 3.875C29.5348 4.71423 29.6698 5.83915 29.7598 7.26758C29.8648 8.69614 29.9102 9.92857 29.9102 11L30 12.5C30 16.4107 29.7598 19.2857 29.3398 21.125C28.9649 22.732 28.095 23.7674 26.7451 24.2139C26.0401 24.446 24.7495 24.6067 22.7695 24.7139C20.8197 24.8388 19.0346 24.8926 17.3848 24.8926L15 25C8.715 25 4.79988 24.7139 3.25488 24.2139C1.90502 23.7674 1.03514 22.732 0.660156 21.125C0.465169 20.2858 0.330234 19.1609 0.240234 17.7324C0.135234 16.3039 0.0898438 15.0714 0.0898438 14L0 12.5C5.41374e-07 8.58929 0.240157 5.71428 0.660156 3.875C1.03514 2.26797 1.90503 1.2326 3.25488 0.786133C3.95988 0.55399 5.25047 0.393276 7.23047 0.286133C9.1803 0.161153 10.9654 0.107422 12.6152 0.107422L15 0ZM12 17.8574L19.7852 12.5L12 7.14258V17.8574Z" fill="white"/>
</svg>
